<!DOCTYPE svg PUBLIC "-//W3C//DTD SVG 20010904//EN" "http://www.w3.org/TR/2001/REC-SVG-20010904/DTD/svg10.dtd">
<svg version="1.0" xmlns="http://www.w3.org/2000/svg" width="48px" height="48px" viewBox="0 0 480 480" preserveAspectRatio="xMidYMid meet">
<g id="layer101" fill="#000000" stroke="none">
 <path d="M120 315 l-74 -75 74 -75 c41 -41 79 -74 84 -72 5 2 14 11 20 20 9 13 2 25 -34 62 l-44 45 137 0 c130 0 137 1 137 20 0 19 -7 20 -137 20 l-137 0 44 45 c36 37 43 49 34 62 -6 9 -15 18 -20 20 -5 2 -43 -31 -84 -72z"/>
 </g>

</svg>